<?xml version="1.0" encoding="UTF-8"?>
<svg id="Layer_2" data-name="Layer 2" xmlns="http://www.w3.org/2000/svg" viewBox="0 0 615.7 615.78">
  <defs>
    <style>
      .cls-1 {
        fill: #212121;
        stroke-width: 0px;
      }
    </style>
  </defs>
  <g id="Layer_1-2" data-name="Layer 1">
    <g>
      <path class="cls-1" d="M158.77,615.78c-42.43,0-82.32-16.52-112.32-46.52-61.93-61.93-61.93-162.7,0-224.64l106.57-106.57c61.93-61.93,162.7-61.93,224.64,0,13.85,13.85,13.85,36.32,0,50.17-13.86,13.85-36.32,13.85-50.17,0-34.27-34.27-90.03-34.27-124.3,0l-106.57,106.57c-34.27,34.27-34.27,90.03,0,124.3,16.6,16.6,38.67,25.74,62.15,25.74s45.55-9.14,62.15-25.74l53.78-53.78c13.85-13.85,36.32-13.85,50.17,0,13.85,13.85,13.85,36.32,0,50.17l-53.78,53.78c-30,30-69.89,46.52-112.32,46.52Z"/>
      <path class="cls-1" d="M350.37,424.1c-40.68,0-81.35-15.48-112.32-46.45-13.85-13.85-13.85-36.32,0-50.17,13.86-13.85,36.32-13.85,50.17,0,34.27,34.27,90.03,34.27,124.3,0l106.57-106.56c34.27-34.27,34.27-90.03,0-124.3-34.27-34.27-90.03-34.27-124.3,0l-53.78,53.78c-13.85,13.85-36.32,13.85-50.17,0-13.85-13.85-13.85-36.32,0-50.17l53.78-53.78c61.93-61.93,162.7-61.93,224.64,0,61.93,61.93,61.93,162.7,0,224.64l-106.57,106.57c-30.97,30.97-71.64,46.45-112.32,46.45Z"/>
    </g>
  </g>
</svg>