<?xml version="1.0" encoding="UTF-8"?>
<svg id="Layer_2" data-name="Layer 2" xmlns="http://www.w3.org/2000/svg" viewBox="0 0 464.25 68.61">
  <defs>
    <style>
      .cls-1 {
        fill: #3c3c3b;
      }

      .cls-1, .cls-2, .cls-3 {
        stroke-width: 0px;
      }

      .cls-2 {
        fill: #1d71b8;
      }

      .cls-3 {
        fill: #00a19a;
      }
    </style>
  </defs>
  <g id="Ebene_1" data-name="Ebene 1">
    <g>
      <path class="cls-1" d="M144.4.13h8.02l6.56,13.17,2.82,6.63h.18c-.36-3.18-1-7.63-1-11.26V.13h7.47v29.52h-8.02l-6.56-13.22-2.82-6.59h-.18c.36,3.36,1,7.63,1,11.26v8.54h-7.47V.13Z"/>
      <path class="cls-1" d="M175.02.13h19.13v6.54h-11.3v4.63h9.66v6.54h-9.66v5.27h11.75v6.54h-19.59V.13Z"/>
      <path class="cls-1" d="M206,6.67h-7.84V.13h23.5v6.54h-7.83v22.98h-7.83V6.67Z"/>
      <path class="cls-1" d="M222.41,24.92l12.12-18.26h-10.93V.13h20.59v4.72l-12.12,18.26h12.21v6.54h-21.87v-4.72Z"/>
      <path class="cls-1" d="M246.1.13h8.02l1.64,12.9c.32,3.09.68,6.18,1,9.26h.18c.55-3.09,1.09-6.22,1.64-9.26l2.82-12.9h6.56l2.82,12.9c.55,2.95,1.09,6.13,1.64,9.26h.18c.32-3.13.68-6.27,1-9.26l1.64-12.9h7.47l-4.92,29.52h-9.93l-2.28-11.72c-.46-2.27-.82-4.72-1.09-6.9h-.18c-.32,2.18-.64,4.63-1.09,6.9l-2.19,11.72h-9.75L246.1.13Z"/>
      <path class="cls-1" d="M286.47.13h19.13v6.54h-11.3v4.63h9.66v6.54h-9.66v5.27h11.75v6.54h-19.59V.13Z"/>
      <path class="cls-1" d="M327.75,29.65l-5.1-9.9h-3.01v9.9h-7.83V.13h11.21c6.38,0,11.84,2.18,11.84,9.54,0,4.22-1.91,6.99-4.78,8.54l6.42,11.45h-8.75ZM319.64,13.57h2.82c3.1,0,4.74-1.36,4.74-3.9s-1.64-3.36-4.74-3.36h-2.82v7.27Z"/>
      <path class="cls-1" d="M340.51.13h7.83v10.99h.18l7.47-10.99h8.57l-8.84,11.99,10.57,17.53h-8.56l-6.56-11.35-2.82,4v7.36h-7.83V.13Z"/>
    </g>
    <g>
      <path class="cls-2" d="M144.4,39.03h7.84v10.99h8.84v-10.99h7.84v29.52h-7.84v-11.72h-8.84v11.72h-7.84v-29.52Z"/>
      <path class="cls-2" d="M180.67,58.38l-8.93-19.35h8.38l2.19,6.18c.73,2.23,1.46,4.27,2.23,6.58h.18c.77-2.32,1.55-4.36,2.32-6.58l2.19-6.18h8.2l-8.93,19.35v10.17h-7.83v-10.17Z"/>
      <path class="cls-2" d="M200.26,39.03h10.66c6.2,0,11.21,1.54,11.21,7.36,0,2.54-1.46,5.45-4.92,6.36v.18c4.19.82,6.29,3,6.29,6.9,0,6.09-5.28,8.72-11.66,8.72h-11.57v-29.52ZM210.74,50.66c2.55,0,3.74-1.27,3.74-3.09s-1.18-2.54-3.74-2.54h-2.64v5.63h2.64ZM211.29,62.56c3.1,0,4.55-1.18,4.55-3.36s-1.46-3.09-4.55-3.09h-3.19v6.45h3.19Z"/>
      <path class="cls-2" d="M244.09,68.55l-5.1-9.9h-3.01v9.9h-7.83v-29.52h11.21c6.38,0,11.84,2.18,11.84,9.54,0,4.22-1.91,6.99-4.78,8.54l6.42,11.45h-8.75ZM235.98,52.48h2.82c3.1,0,4.74-1.36,4.74-3.9s-1.64-3.36-4.74-3.36h-2.82v7.27Z"/>
      <path class="cls-2" d="M256.85,39.03h7.83v29.52h-7.83v-29.52Z"/>
      <path class="cls-2" d="M271.25,39.03h8.75c9.02,0,15.21,4.18,15.21,14.62s-6.19,14.9-14.76,14.9h-9.2v-29.52ZM279.54,62.29c4.28,0,7.65-1.73,7.65-8.63s-3.37-8.36-7.65-8.36h-.46v16.99h.46Z"/>
      <path class="cls-2" d="M300.5,39.03h19.13v6.54h-11.3v4.63h9.66v6.54h-9.66v5.27h11.75v6.54h-19.59v-29.52Z"/>
      <path class="cls-3" d="M335.4,39.03h7.83v22.98h11.21v6.54h-19.04v-29.52Z"/>
      <path class="cls-3" d="M359.55,39.03h19.13v6.54h-11.3v4.63h9.66v6.54h-9.66v5.27h11.75v6.54h-19.59v-29.52Z"/>
      <path class="cls-3" d="M384.88,39.03h7.83v10.99h8.84v-10.99h7.83v29.52h-7.83v-11.72h-8.84v11.72h-7.83v-29.52Z"/>
      <path class="cls-3" d="M431.9,68.55l-5.1-9.9h-3.01v9.9h-7.83v-29.52h11.21c6.38,0,11.84,2.18,11.84,9.54,0,4.22-1.91,6.99-4.78,8.54l6.42,11.45h-8.75ZM423.79,52.48h2.82c3.1,0,4.74-1.36,4.74-3.9s-1.64-3.36-4.74-3.36h-2.82v7.27Z"/>
      <path class="cls-3" d="M444.66,39.03h19.13v6.54h-11.3v4.63h9.66v6.54h-9.66v5.27h11.75v6.54h-19.59v-29.52Z"/>
    </g>
    <g>
      <path class="cls-1" d="M20.03,68.61h92.81l20.23-13.38h-45.97s-6.38.41-12.63,5.02c-6.25,4.62-7.4,7.06-7.4,7.06,0,0-8.89-12.29-21.93-12.29H0l20.03,13.58Z"/>
      <path class="cls-2" d="M65.59,59.31s-12.22-9.51-19.35-9.51H9.23l-5.23-5.91h37.55s9.3-.34,16.29,6.38,7.74,9.03,7.74,9.03Z"/>
      <path class="cls-3" d="M60.63,47.7s-11.34-9.23-19.69-9.23h-19.83l-2.99-5.77h18.33s6.38-.68,13.92,4.48c7.54,5.16,10.25,10.52,10.25,10.52Z"/>
      <path class="cls-2" d="M67.62,59.31s12.22-9.51,19.35-9.51h37l5.23-5.91h-37.55s-9.3-.34-16.29,6.38c-6.99,6.72-7.74,9.03-7.74,9.03Z"/>
      <path class="cls-3" d="M72.58,47.7s11.34-9.23,19.69-9.23h19.83l2.99-5.77h-18.33s-6.38-.68-13.92,4.48c-7.54,5.16-10.25,10.52-10.25,10.52Z"/>
    </g>
    <path class="cls-1" d="M103.85,0H29.22c-4.68,0-8.48,3.81-8.48,8.48v22.39l5.24.07V8.48c0-1.79,1.45-3.24,3.24-3.24h74.63c1.79,0,3.24,1.45,3.24,3.24v22.53l5.24.08V8.48c0-4.68-3.81-8.48-8.48-8.48ZM66.54,3.84c-.69,0-1.26-.56-1.26-1.26s.56-1.26,1.26-1.26,1.26.56,1.26,1.26-.56,1.26-1.26,1.26Z"/>
  </g>
</svg>