<svg width="1760" height="1760" xmlns="http://www.w3.org/2000/svg" xmlns:xlink="http://www.w3.org/1999/xlink" overflow="hidden"><defs><clipPath id="clip0"><rect x="2260" y="319" width="1760" height="1760"/></clipPath></defs><g clip-path="url(#clip0)" transform="translate(-2260 -319)"><path d="M2816.42 928.302 2816.41 928.302 2648.86 928.302 2637.05 928.898 2623.06 943.694 2618.19 951.504 2617.52 951.972C2592.87 978.041 2594.02 1019.16 2620.09 1043.8L2634.42 1057.35 2817.59 1230.54C2843.66 1255.18 2884.77 1254.03 2909.42 1227.96 2934.07 1201.89 2932.92 1160.78 2906.85 1136.13L2822.91 1056.77 2755.35 992.888 2755.35 992.888 2822.91 1056.77 3324.95 1056.77C3468.08 1056.77 3584.11 1172.79 3584.11 1315.92 3584.11 1459.05 3468.08 1575.08 3324.95 1575.08L3307.92 1575.08 3185.05 1575.08 3163.43 1589.66C3150.85 1602.24 3143.07 1619.61 3143.07 1638.81 3143.07 1667.6 3160.58 1692.31 3185.53 1702.86L3187.73 1703.54 3305.24 1703.54 3325.26 1703.54C3539.34 1703.54 3712.88 1530 3712.88 1315.92 3712.88 1101.85 3539.34 928.302 3325.26 928.302ZM2855.18 725.894C2838.56 726.359 2822.12 733.165 2809.79 746.199L2637.05 928.898 2648.86 928.302 2816.41 928.302 2904.2 835.459C2928.85 809.39 2927.69 768.275 2901.63 743.627 2888.59 731.302 2871.8 725.428 2855.18 725.894ZM3140 319C3626.01 319 4020 712.99 4020 1199 4020 1685.01 3626.01 2079 3140 2079 2653.99 2079 2260 1685.01 2260 1199 2260 712.99 2653.99 319 3140 319Z" fill-rule="evenodd"/></g></svg>