<svg width="1559" height="1559" xmlns="http://www.w3.org/2000/svg" xmlns:xlink="http://www.w3.org/1999/xlink" overflow="hidden"><defs><clipPath id="clip0"><rect x="2565" y="303" width="1559" height="1559"/></clipPath></defs><g clip-path="url(#clip0)" transform="translate(-2565 -303)"><path d="M3498.23 610.266C3473.3 612.418 3448.72 621.781 3427.8 638.705L2988.28 994.306C2960.39 1016.87 2944.29 1048.6 2940.8 1081.67L2940.74 1087.97 2940.56 1088.93 2940.64 1097.73 2940.56 1106.59 2940.74 1107.57 2940.8 1113.86C2944.29 1146.92 2960.39 1178.66 2988.28 1201.22L3427.8 1556.82C3483.58 1601.95 3565.39 1593.32 3610.52 1537.54 3655.65 1481.76 3647.01 1399.95 3591.23 1354.82L3273.51 1097.76 3591.23 840.704C3647.01 795.574 3655.65 713.77 3610.52 657.989 3582.31 623.126 3539.78 606.68 3498.23 610.266ZM2966.49 303 3703.26 303C3935.63 303 4124 491.373 4124 723.743L4124 1460.51C4124 1682.25 3944.25 1862 3722.51 1862L2985.74 1862C2753.37 1862 2565 1673.63 2565 1441.26L2565 704.489C2565 482.753 2744.75 303 2966.49 303Z" fill-rule="evenodd"/></g></svg>