<svg width="1760" height="1760" xmlns="http://www.w3.org/2000/svg" xmlns:xlink="http://www.w3.org/1999/xlink" overflow="hidden"><defs><clipPath id="clip0"><rect x="2344" y="358" width="1760" height="1760"/></clipPath></defs><g clip-path="url(#clip0)" transform="translate(-2344 -358)"><path d="M2905.47 1045.17 3089.48 1219.15C3115.55 1243.8 3156.66 1242.65 3181.31 1216.58 3205.96 1190.51 3204.81 1149.4 3178.74 1124.75L3094.57 1045.17ZM3086.86 918.447 2908.06 918.447 2894.95 932.311 2890.08 940.12 2889.41 940.589C2864.76 966.658 2865.91 1007.77 2891.98 1032.42L2905.47 1045.17 3094.57 1045.17 3320.65 1045.17C3463.78 1045.17 3579.81 1161.2 3579.81 1304.33 3579.81 1447.46 3463.78 1563.48 3320.65 1563.49L3151.8 1563.49 3151.8 1563.49 2902.07 1563.49 2888.87 1564.82C2863.29 1570.05 2843.15 1590.2 2837.91 1615.77L2836.58 1628.97 2837.91 1642.17C2843.15 1667.75 2863.29 1687.89 2888.87 1693.13L2894.44 1693.69 3180.45 1693.69 3180.45 1693.69 3337.46 1693.69C3551.54 1693.69 3725.08 1520.14 3725.08 1306.07 3725.08 1091.99 3551.54 918.447 3337.46 918.447ZM3127.07 714.511C3110.45 714.977 3094.01 721.782 3081.68 734.817L2908.06 918.447 3086.86 918.447 3176.09 824.077C3200.74 798.007 3199.58 756.892 3173.51 732.244 3160.48 719.92 3143.68 714.046 3127.07 714.511ZM3224 358C3710.01 358 4104 751.989 4104 1238 4104 1724.01 3710.01 2118 3224 2118 2737.99 2118 2344 1724.01 2344 1238 2344 751.989 2737.99 358 3224 358Z" fill-rule="evenodd"/></g></svg>