<svg width="1760" height="1760" xmlns="http://www.w3.org/2000/svg" xmlns:xlink="http://www.w3.org/1999/xlink" overflow="hidden"><defs><clipPath id="clip0"><rect x="2441" y="278" width="1760" height="1760"/></clipPath></defs><g clip-path="url(#clip0)" transform="translate(-2441 -278)"><path d="M3209.59 813.066C3197.52 813.711 3185.69 818.963 3176.97 828.667L2985.68 1041.54 2982.94 1046.19 2890.76 1148.78C2879.25 1161.58 2874.02 1177.85 2874.87 1193.78L2879.47 1212.14 2880.78 1221.48C2883.42 1229.13 2887.6 1236.4 2893.36 1242.81L2986.59 1346.57 2989.33 1351.21 3178.51 1561.74C3196.53 1581.8 3227.4 1583.45 3247.46 1565.42L3267.6 1547.33C3287.65 1529.31 3289.3 1498.44 3271.28 1478.38L3159.95 1354.48 3157.21 1349.83 3069.53 1252.26 3821.48 1252.26C3848.35 1252.26 3870.12 1230.48 3870.13 1203.61L3870.13 1176.18C3870.13 1149.31 3848.35 1127.53 3821.48 1127.53L3077.53 1127.53 3154.61 1041.75 3157.35 1037.1 3269.74 912.031C3287.18 892.622 3285.58 862.749 3266.18 845.309L3243.69 825.103C3233.98 816.383 3221.66 812.422 3209.59 813.066ZM3321 278C3807.01 278 4201 671.99 4201 1158 4201 1644.01 3807.01 2038 3321 2038 2834.99 2038 2441 1644.01 2441 1158 2441 671.99 2834.99 278 3321 278Z" fill-rule="evenodd"/></g></svg>