<svg width="968" height="969" xmlns="http://www.w3.org/2000/svg" xmlns:xlink="http://www.w3.org/1999/xlink" overflow="hidden"><defs><clipPath id="clip0"><rect x="3182" y="1282" width="968" height="969"/></clipPath></defs><g clip-path="url(#clip0)" transform="translate(-3182 -1282)"><path d="M545.5 214.899C531.787 216.084 518.269 221.239 506.764 230.557L265.018 426.346C249.678 438.77 240.82 456.242 238.901 474.448L238.867 477.916 238.77 478.446 238.816 483.288 238.769 488.171 238.868 488.706 238.901 492.169C240.821 510.375 249.678 527.847 265.018 540.271L506.764 736.06C537.445 760.909 582.439 756.155 607.261 725.443 632.084 694.73 627.335 649.69 596.654 624.842L421.9 483.308 596.654 341.775C627.334 316.927 632.083 271.887 607.261 241.175 591.747 221.98 568.353 212.924 545.5 214.899ZM484 0C751.306 0 968 216.918 968 484.5 968 752.082 751.306 969 484 969 216.694 969 0 752.082 0 484.5 0 216.918 216.694 0 484 0Z" fill-rule="evenodd" transform="matrix(-1 0 0 1 4150 1282)"/></g></svg>