<svg width="700" height="977" xmlns="http://www.w3.org/2000/svg" xmlns:xlink="http://www.w3.org/1999/xlink" overflow="hidden"><defs><clipPath id="clip0"><rect x="3315" y="154" width="700" height="977"/></clipPath></defs><g clip-path="url(#clip0)" transform="translate(-3315 -154)"><path d="M771.06 22.1887C805.619 45.5363 828.34 85.0753 828.34 129.921 828.34 201.675 770.173 259.843 698.419 259.843L289.715 259.843 375.039 659.542C390.018 729.715 345.275 798.744 275.103 813.724 204.93 828.704 135.901 783.961 120.921 713.788L2.8893 160.866C-4.60066 125.78 2.83986 90.9792 20.9249 63.0779L24.8344 58.1488 25.3058 57.2808 30.9512 50.4383 36.4169 43.5485 37.1611 42.9123 41.1706 38.0532C64.6813 14.5418 97.162 0 133.039 0L698.419 0C725.327 0 750.324 8.17999 771.06 22.1887Z" fill-rule="evenodd" transform="matrix(-0.777421 -0.628981 -0.628981 0.777421 4070.35 623.19)"/></g></svg>