<svg width="516" height="720" xmlns="http://www.w3.org/2000/svg" xmlns:xlink="http://www.w3.org/1999/xlink" overflow="hidden"><defs><clipPath id="clip0"><rect x="382" y="0" width="516" height="720"/></clipPath></defs><g clip-path="url(#clip0)" transform="translate(-382 0)"><path d="M568.292 16.3537C593.762 33.5615 610.508 62.7027 610.508 95.7552 610.508 148.64 567.638 191.511 514.753 191.511L213.528 191.511 276.414 486.1C287.454 537.819 254.477 588.695 202.758 599.736 151.039 610.777 100.163 577.8 89.122 526.081L2.12949 118.562C-3.39081 92.7032 2.09305 67.0541 15.4222 46.4901L18.3036 42.8572 18.651 42.2175 22.8118 37.1744 26.8402 32.0964 27.3887 31.6275 30.3438 28.0462C47.6718 10.7177 71.611 0 98.0532 0L514.753 0C534.585 0 553.009 6.02887 568.292 16.3537Z" fill-rule="evenodd" transform="matrix(0.777544 -0.628916 0.62908 0.77734 341.199 345.77)"/></g></svg>