<svg width="841" height="790" xmlns="http://www.w3.org/2000/svg" xmlns:xlink="http://www.w3.org/1999/xlink" overflow="hidden"><defs><clipPath id="clip0"><rect x="344" y="69" width="841" height="790"/></clipPath></defs><g clip-path="url(#clip0)" transform="translate(-344 -69)"><path d="M956.472 165.725 1100.22 290.386 792.278 645.467C617.552 674.67 656.244 682.329 643.42 671.908 630.597 661.486 644.171 717.508 648.533 520.807L956.472 165.725Z" fill-rule="evenodd"/><path d="M1063.37 73.4724 1178.66 173.46C1185.9 179.736 1186.68 190.689 1180.4 197.925L1123.59 263.433 982.093 140.72 1038.9 75.2119C1045.18 67.9759 1056.13 67.1971 1063.37 73.4724Z" fill-rule="evenodd"/><path d="M459.515 208 869.321 208 817.164 264.492 460.892 264.492C429.643 264.492 404.312 288.286 404.312 317.637L404.312 749.363C404.312 778.714 429.643 802.508 460.892 802.508L936.988 802.508C968.236 802.508 993.568 778.714 993.568 749.363L993.568 468.341 1057 399.638 1057 750.498C1057 810.422 1005.28 859 941.486 859L459.515 859C395.718 859 344 810.422 344 750.498L344 316.502C344 256.578 395.718 208 459.515 208Z" fill-rule="evenodd"/></g></svg>