<svg width="96" height="96" xmlns="http://www.w3.org/2000/svg" xmlns:xlink="http://www.w3.org/1999/xlink" overflow="hidden"><defs><clipPath id="clip0"><rect x="604" y="235" width="96" height="96"/></clipPath></defs><g clip-path="url(#clip0)" transform="translate(-604 -235)"><path d="M696 268 698 268 698 270 696 270Z"/><path d="M692 268 694 268 694 270 692 270Z"/><path d="M680 268 682 268 682 270 680 270Z"/><path d="M684 268 686 268 686 270 684 270Z"/><path d="M676 268 678 268 678 270 676 270Z"/><path d="M688 268 690 268 690 270 688 270Z"/><path d="M672 268 674 268 674 270 672 270Z"/><path d="M672 260 674 260 674 262 672 262Z"/><path d="M672 264 674 264 674 266 672 266Z"/><path d="M672 248 674 248 674 250 672 250Z"/><path d="M672 256 674 256 674 258 672 258Z"/><path d="M672 252 674 252 674 254 672 254Z"/><path d="M672 244 674 244 674 246 672 246Z"/><path d="M692 244 694 244 694 246 692 246Z"/><path d="M684 244 686 244 686 246 684 246Z"/><path d="M680 244 682 244 682 246 680 246Z"/><path d="M676 244 678 244 678 246 676 246Z"/><path d="M688 244 690 244 690 246 688 246Z"/><path d="M696 244 698 244 698 246 696 246Z"/><path d="M696 252 698 252 698 254 696 254Z"/><path d="M696 260 698 260 698 262 696 262Z"/><path d="M696 256 698 256 698 258 696 258Z"/><path d="M696 264 698 264 698 266 696 266Z"/><path d="M696 248 698 248 698 250 696 250Z"/><path d="M617.001 254.983 617.001 257 669 256.983 669 254.983 617.001 254.983Z"/><path d="M685.004 265 687.004 265 687.004 256.983 687.004 254.983 685.004 254.983 677 254.983 677 256.983 685.004 256.983 685.004 265Z"/><path d="M617.001 284 617.001 298.995 617.001 300.995 619.001 300.995 685.004 300.995 687.004 300.995 687.004 298.995 687.004 273 685.004 273 685.004 298.995 619.001 298.995 619.001 284 617.001 284Z"/><path d="M614 253.982C614 252.877 614.895 251.982 616 251.982L669 251.982 669 249.982 616 249.982C613.794 249.989 612.007 251.776 612 253.982L612 257 614 257Z"/><path d="M690 253.982 690 265 692 265 692 253.982C691.993 251.776 690.206 249.989 688 249.982L677 249.982 677 251.982 688 251.982C689.105 251.982 690 252.877 690 253.982Z"/><path d="M690 302C690 303.105 689.105 304 688 304L616 304C614.895 304 614 303.105 614 302L614 284 612 284 612 302C612.007 304.206 613.794 305.993 616 306L645 306 645 316 634 316 634 318 670 318 670 316 659 316 659 306 688 306C690.206 305.993 691.993 304.206 692 302L692 273 690 273ZM657 316 647 316 647 306 657 306Z"/><path d="M632 260 606 260 606 281 632 281ZM630 279 608 279 608 262 630 262Z"/><path d="M613 266 625 266 625 268 613 268Z"/><path d="M613 272 621 272 621 274 613 274Z"/><path d="M652 292C659.732 292 666 285.732 666 278 666 270.268 659.732 264 652 264 644.268 264 638 270.268 638 278 638.008 285.729 644.271 291.992 652 292ZM645.013 287.737C645.159 283.878 648.406 280.868 652.264 281.014 655.918 281.153 658.849 284.083 658.987 287.737 654.818 290.754 649.182 290.754 645.013 287.737ZM649 276C649 274.343 650.343 273 652 273 653.657 273 655 274.343 655 276 655 277.657 653.657 279 652 279 650.343 279 649 277.657 649 276ZM652 266C658.616 265.99 663.988 271.345 663.998 277.961 664.003 280.99 662.86 283.909 660.8 286.129 660.172 283.209 658.141 280.789 655.375 279.663 657.411 277.798 657.55 274.635 655.685 272.599 653.82 270.562 650.657 270.423 648.621 272.289 646.585 274.154 646.446 277.316 648.311 279.353 648.41 279.461 648.513 279.564 648.621 279.663 645.856 280.79 643.827 283.21 643.2 286.129 638.699 281.279 638.983 273.699 643.832 269.198 646.053 267.138 648.971 265.995 652 266Z"/><path d="M679.748 286.608C679.748 286.524 679.664 286.44 679.496 286.356L669.5 283 669.416 283C669.236 283.012 669.092 283.156 669.08 283.336L669.08 283.42 672.357 293.5C672.437 293.657 672.6 293.755 672.777 293.752 672.861 293.752 672.945 293.668 673.029 293.5L674.284 290.07C674.287 290.066 674.294 290.065 674.298 290.068 674.299 290.069 674.299 290.069 674.3 290.07L678.236 294 680 292.236 676.064 288.3C676.059 288.296 676.059 288.289 676.062 288.284 676.063 288.284 676.063 288.284 676.064 288.283L679.5 287.028C679.656 286.947 679.752 286.784 679.748 286.608Z"/></g></svg>