<svg width="96" height="96" xmlns="http://www.w3.org/2000/svg" xmlns:xlink="http://www.w3.org/1999/xlink" overflow="hidden"><defs><clipPath id="clip0"><rect x="192" y="217" width="96" height="96"/></clipPath></defs><g clip-path="url(#clip0)" transform="translate(-192 -217)"><path d="M248.258 278.856 248.258 259.096C252.923 252.503 255.18 244.507 254.649 236.448 254.531 234.323 252.712 232.697 250.587 232.815 248.462 232.934 246.836 234.752 246.955 236.877 246.955 236.891 246.956 236.904 246.957 236.917 247.384 243.057 245.722 249.161 242.24 254.236L241.492 254.236C240.492 254.268 239.499 254.426 238.538 254.707 238.28 254.771 238.025 254.849 237.774 254.94 228.776 258.212 222.52 264.175 218.102 273.695 217.219 275.587 217.898 277.84 219.679 278.929 220.901 279.586 222.383 279.534 223.557 278.795 224.221 278.36 224.744 277.74 225.06 277.011 226.832 272.91 229.523 269.272 232.924 266.376L232.924 281.962 230.518 286.834 219.075 286.085C216.951 285.952 215.122 287.566 214.989 289.69 214.857 291.808 216.462 293.634 218.579 293.775L232.58 294.693C232.587 294.693 232.689 294.697 232.695 294.697 232.71 294.698 232.821 294.701 232.836 294.701 234.303 294.706 235.643 293.872 236.289 292.555L241.247 282.522C241.25 282.517 241.256 282.515 241.261 282.517 241.262 282.518 241.263 282.519 241.264 282.52L246.99 289.289 245.949 304.056C245.804 306.172 247.394 308.007 249.509 308.165 249.604 308.173 249.7 308.176 249.796 308.176 251.814 308.167 253.486 306.607 253.635 304.594L254.787 288.266C254.862 287.263 254.538 286.271 253.887 285.505ZM251.635 304.526C251.568 305.483 250.753 306.213 249.795 306.176L249.662 306.171C248.643 306.098 247.876 305.215 247.944 304.195L249.014 289.024C249.032 288.764 248.948 288.507 248.78 288.307L241.796 280.053C241.439 279.631 240.808 279.578 240.387 279.935 240.282 280.023 240.197 280.133 240.136 280.255L234.473 291.714C234.166 292.335 233.527 292.72 232.835 292.701L232.711 292.697 218.718 291.78C217.697 291.708 216.927 290.823 216.999 289.802 217.07 288.791 217.94 288.024 218.952 288.081L231.054 288.874C231.457 288.902 231.838 288.682 232.016 288.319L234.821 282.639C234.889 282.501 234.924 282.35 234.924 282.196L234.924 264.375C234.924 263.822 234.477 263.375 233.924 263.374 233.722 263.374 233.524 263.436 233.357 263.551 229.1 266.482 225.772 270.654 223.183 276.305 222.757 277.236 221.656 277.644 220.726 277.218 220.656 277.185 220.587 277.149 220.522 277.108 219.722 276.57 219.44 275.525 219.861 274.657 224.043 265.581 229.955 259.911 238.458 256.82 238.665 256.744 238.814 256.703 239.077 256.633 239.873 256.399 240.695 256.265 241.524 256.236L242.76 256.236C243.08 256.237 243.381 256.084 243.569 255.825 247.519 250.297 249.423 243.566 248.953 236.788 248.888 235.766 249.663 234.885 250.685 234.82 251.707 234.755 252.588 235.531 252.653 236.553 252.653 236.56 252.654 236.567 252.654 236.575 253.162 244.28 250.969 251.922 246.451 258.185 246.326 258.356 246.259 258.563 246.258 258.775L246.258 279.222C246.258 279.459 246.342 279.688 246.495 279.869L252.36 286.797C252.673 287.165 252.828 287.642 252.792 288.124Z"/><path d="M261.871 228.24 261.071 227.78C260.974 227.721 260.924 227.607 260.947 227.496L261.147 226.572C261.169 226.453 261.118 226.333 261.017 226.266 260.913 226.213 260.788 226.223 260.692 226.29L259.975 226.913C259.891 226.994 259.764 227.007 259.665 226.946L258.865 226.485C258.766 226.424 258.639 226.437 258.555 226.518 258.472 226.594 258.441 226.711 258.475 226.818L258.607 227.218 258.768 227.734C258.78 227.786 258.78 227.84 258.768 227.891 258.758 227.941 258.731 227.987 258.692 228.02L257.965 228.695C257.876 228.771 257.849 228.897 257.899 229.003 257.945 229.101 258.044 229.163 258.152 229.163L258.175 229.162 259.157 229.076 259.18 229.075C259.288 229.075 259.386 229.137 259.432 229.235L259.84 230.124C259.886 230.221 259.984 230.284 260.092 230.284L260.115 230.283C260.232 230.273 260.328 230.189 260.354 230.075L260.589 229.116C260.613 229.011 260.699 228.932 260.805 228.916L261.763 228.739C261.877 228.719 261.969 228.635 262 228.523 262.017 228.411 261.966 228.301 261.871 228.24Z"/><path d="M241.2 230.519 241.665 230.802C241.709 230.832 241.746 230.871 241.773 230.916 241.799 230.96 241.808 231.012 241.801 231.063L241.701 232.045C241.686 232.161 241.749 232.274 241.857 232.32 241.964 232.367 242.088 232.343 242.17 232.26L242.852 231.56C242.934 231.477 243.059 231.453 243.165 231.501L244.065 231.901C244.171 231.948 244.296 231.924 244.377 231.841 244.458 231.758 244.475 231.631 244.419 231.529L243.958 230.653C243.906 230.559 243.918 230.442 243.987 230.36L244.587 229.603C244.682 229.487 244.666 229.316 244.55 229.22 244.501 229.18 244.44 229.158 244.377 229.158 244.362 229.158 244.346 229.159 244.331 229.162L243.425 229.335C243.313 229.353 243.201 229.3 243.144 229.202L242.676 228.379C242.622 228.287 242.524 228.231 242.418 228.231 242.282 228.23 242.167 228.329 242.148 228.463L242.023 229.4C242.012 229.515 241.925 229.608 241.811 229.626L240.906 229.799C240.792 229.816 240.704 229.91 240.694 230.025 240.681 230.137 240.736 230.246 240.833 230.303Z"/><path d="M236.781 252.968C240.095 252.968 242.781 250.282 242.781 246.968 242.781 243.654 240.095 240.968 236.781 240.968 233.467 240.968 230.781 243.654 230.781 246.968 230.781 250.282 233.467 252.968 236.781 252.968ZM235.695 243.112C237.831 242.518 240.043 243.768 240.637 245.904 240.833 246.608 240.833 247.351 240.637 248.055 240.27 249.403 239.216 250.456 237.868 250.824 235.732 251.418 233.519 250.168 232.925 248.032 232.729 247.329 232.729 246.585 232.925 245.881 233.293 244.533 234.346 243.479 235.695 243.112Z"/><path d="M255.271 222.937 253.152 222.937C252.891 222.932 252.66 222.765 252.574 222.518L251.881 220.458C251.785 220.196 251.543 220.016 251.264 220 250.997 220.015 250.76 220.176 250.648 220.419L249.954 222.479C249.883 222.727 249.657 222.899 249.398 222.899L249.377 222.899 247.258 222.899 247.236 222.898C246.978 222.899 246.751 223.07 246.68 223.319 246.604 223.566 246.679 223.834 246.872 224.005L247.604 224.654 248.529 225.493C248.614 225.578 248.68 225.68 248.722 225.793 248.76 225.904 248.76 226.025 248.722 226.136L248.067 228.311C247.978 228.567 248.074 228.85 248.3 229 248.52 229.153 248.812 229.153 249.032 229L250.881 227.7C251.101 227.548 251.393 227.548 251.613 227.7L253.46 229C253.68 229.153 253.972 229.153 254.192 229 254.411 228.846 254.504 228.569 254.423 228.314L253.768 226.139C253.693 225.904 253.77 225.647 253.961 225.491L255.661 224.041C255.927 223.823 255.965 223.43 255.747 223.165 255.63 223.022 255.456 222.939 255.271 222.937ZM251.753 225.635C251.415 225.569 251.067 225.57 250.729 225.637 250.707 225.47 250.669 225.306 250.615 225.147L250.605 225.12 250.596 225.093C250.544 224.955 250.481 224.82 250.409 224.692 250.727 224.555 251.014 224.357 251.254 224.108 251.485 224.351 251.761 224.549 252.066 224.689 251.901 224.981 251.795 225.302 251.753 225.635Z"/></g></svg>