<svg width="96" height="96" xmlns="http://www.w3.org/2000/svg" xmlns:xlink="http://www.w3.org/1999/xlink" overflow="hidden"><defs><clipPath id="clip0"><rect x="604" y="382" width="96" height="96"/></clipPath></defs><g clip-path="url(#clip0)" transform="translate(-604 -382)"><path d="M662.049 387.755C661.535 387.553 660.954 387.806 660.753 388.32 660.551 388.835 660.804 389.415 661.318 389.617 680.086 396.973 689.338 418.151 681.982 436.919 674.625 455.688 653.447 464.939 634.679 457.583 634.165 457.381 633.584 457.634 633.383 458.148 633.181 458.663 633.434 459.243 633.948 459.445 638.112 461.078 642.529 461.97 647 462.08L647 469.1 634.5 469.1C632.291 469.1 630.5 470.891 630.5 473.1L632.5 473.1C632.5 471.995 633.395 471.1 634.5 471.1L661.5 471.1C662.605 471.1 663.5 471.995 663.5 473.1L665.5 473.1C665.5 470.891 663.709 469.1 661.5 469.1L649 469.1 649 462.062C670.247 461.52 687.032 443.857 686.491 422.61 686.096 407.133 676.466 393.399 662.049 387.755Z"/><path d="M623.5 474.1 672.5 474.1 672.5 476.1 623.5 476.1Z"/><path d="M635.631 453.654C652.23 460.485 671.223 452.567 678.054 435.968 684.885 419.369 676.966 400.376 660.368 393.545 643.769 386.714 624.776 394.632 617.945 411.231 611.058 427.695 618.822 446.625 635.286 453.512 635.401 453.56 635.516 453.607 635.631 453.654ZM649.305 423.054 660.165 396.667C665.41 405.677 666.115 417.519 661.994 428.276ZM661.233 430.126C656.588 440.666 647.752 448.581 637.685 451.29L648.544 424.905ZM647.456 422.3 634.767 417.072C639.412 406.532 648.248 398.617 658.315 395.908ZM646.7 424.144 635.835 450.531C630.59 441.521 629.885 429.679 634.006 418.922ZM639.42 452.868C649.571 449.708 658.386 441.574 663.082 430.889L675.8 436.123C669.537 449.987 654.025 457.127 639.42 452.868ZM676.562 434.274 663.843 429.039C668.03 418.139 667.493 406.162 662.507 396.772 675.879 404.027 681.872 420.018 676.562 434.274ZM648.039 393.1C650.929 393.101 653.805 393.516 656.577 394.333 646.427 397.494 637.613 405.627 632.918 416.311L620.211 411.082C625.147 400.14 636.035 393.104 648.039 393.1ZM619.439 412.926 632.158 418.161C627.971 429.056 628.508 441.038 633.494 450.428 620.122 443.173 614.129 427.183 619.438 412.926Z"/></g></svg>