<svg width="96" height="96" xmlns="http://www.w3.org/2000/svg" xmlns:xlink="http://www.w3.org/1999/xlink" overflow="hidden"><defs><clipPath id="clip0"><rect x="177" y="393" width="96" height="96"/></clipPath></defs><g clip-path="url(#clip0)" transform="translate(-177 -393)"><path d="M256.473 457.512C265.054 439.591 257.482 418.108 239.562 409.527 235.48 407.573 231.066 406.406 226.551 406.088 216.57 405.343 206.734 408.822 199.441 415.677 184.902 429.244 184.114 452.028 197.681 466.567 199.704 468.735 201.988 470.645 204.479 472.253 206.012 473.249 207.801 473.78 209.63 473.782 214.546 473.766 218.667 470.063 219.207 465.176L220.307 455.793C221.35 456.081 222.426 456.23 223.507 456.236 223.889 456.236 224.27 456.216 224.649 456.175 229.076 455.692 232.992 453.087 235.149 449.191L235.149 449.191C241.11 438.778 236.649 428.939 230.386 418.664 226.272 423.453 221.429 427.565 216.037 430.849 209 435 207.526 443.218 211.463 449.681 212.07 450.679 212.802 451.594 213.642 452.406 214.899 453.58 216.392 454.473 218.021 455.025L218.364 455.147C218.332 455.453 218.292 455.747 218.264 456.059L217.22 464.951C216.943 467.595 215.305 469.902 212.9 471.035 210.543 472.174 207.762 471.999 205.566 470.573 189.774 460.399 185.22 439.349 195.394 423.558 205.568 407.766 226.618 403.212 242.41 413.386 256.569 422.509 261.92 440.621 254.99 455.973 253.824 454.802 252.389 453.935 250.81 453.446 246.836 452.297 242.551 453.399 239.625 456.323L234.273 461.674 236.949 464.35 238.09 465.5 233.29 470.3C232.893 470.684 232.882 471.317 233.265 471.714 233.649 472.111 234.282 472.122 234.679 471.739 234.688 471.73 234.696 471.722 234.704 471.714L239.504 466.914 245.09 472.5 240.29 477.3C239.893 477.684 239.882 478.317 240.265 478.714 240.649 479.111 241.282 479.122 241.679 478.739 241.688 478.73 241.696 478.722 241.704 478.714L246.504 473.914 247.65 475.06 250.325 477.736 255.677 472.384C258.595 469.469 259.701 465.201 258.566 461.236 258.149 459.857 257.435 458.585 256.473 457.512ZM215.031 450.966C214.314 450.274 213.689 449.492 213.171 448.64 211.462 445.944 210.913 442.673 211.65 439.567 212.418 436.595 214.37 434.068 217.05 432.572 221.847 429.667 226.226 426.122 230.066 422.034 235.61 431.629 237.995 439.442 233.839 447.434L233.4 448.229C231.559 451.554 228.217 453.777 224.439 454.191 224.131 454.224 223.822 454.241 223.512 454.241 222.504 454.231 221.503 454.074 220.54 453.776 222.04 443.147 226.832 437.803 226.884 437.746 227.254 437.336 227.221 436.703 226.811 436.334 226.408 435.97 225.788 435.995 225.415 436.389 225.188 436.635 220.26 442.1 218.615 453.116 217.283 452.659 216.061 451.927 215.031 450.966ZM254.263 470.966 250.326 474.9 249.064 473.638 238.364 462.938 237.1 461.677 241.037 457.74C242.786 455.98 245.166 454.993 247.647 455 248.529 455 249.406 455.124 250.253 455.368 251.581 455.788 252.783 456.536 253.746 457.543L254.479 458.279C255.483 459.245 256.228 460.449 256.643 461.779 257.574 465.046 256.664 468.562 254.263 470.966Z"/></g></svg>