<svg width="1113" height="978" xmlns="http://www.w3.org/2000/svg" xmlns:xlink="http://www.w3.org/1999/xlink" overflow="hidden"><defs><clipPath id="clip0"><rect x="2812" y="764" width="1113" height="978"/></clipPath></defs><g clip-path="url(#clip0)" transform="translate(-2812 -764)"><path d="M3028.63 966.501 3537.42 966.501C3751.47 966.501 3925 1140.1 3925 1354.25 3925 1568.4 3751.47 1742 3537.42 1742L3517.4 1742 3399.9 1742 3397.7 1741.32C3372.75 1730.76 3355.25 1706.05 3355.25 1677.24 3355.25 1658.04 3363.03 1640.66 3375.61 1628.07L3397.22 1613.49 3520.08 1613.49 3537.11 1613.49C3680.22 1613.49 3796.24 1497.43 3796.24 1354.25 3796.24 1211.07 3680.22 1095.01 3537.11 1095.01L3035.12 1095.01 2967.57 1031.11 2967.57 1031.11 3035.12 1095.01 3119.05 1174.4C3145.12 1199.06 3146.27 1240.18 3121.62 1266.26 3096.98 1292.34 3055.87 1293.49 3029.8 1268.84L2846.65 1095.59 2832.33 1082.04C2806.26 1057.39 2805.11 1016.26 2829.76 990.179L2830.42 989.71 2835.3 981.898 2849.28 967.098 2861.09 966.501 3028.63 966.501ZM3067.39 764.026C3084 763.56 3100.8 769.436 3113.83 781.765 3139.9 806.421 3141.05 847.55 3116.4 873.627L3028.63 966.501 2861.09 966.501 2849.28 967.097 3022.01 784.338C3034.33 771.299 3050.77 764.492 3067.39 764.026Z" fill-rule="evenodd"/></g></svg>