<svg width="1760" height="1760" xmlns="http://www.w3.org/2000/svg" xmlns:xlink="http://www.w3.org/1999/xlink" overflow="hidden"><defs><clipPath id="clip0"><rect x="2448" y="278" width="1760" height="1760"/></clipPath></defs><g clip-path="url(#clip0)" transform="translate(-2448 -278)"><path d="M3439.82 668.322C3414.89 670.474 3390.31 679.837 3369.39 696.762L2929.85 1052.38C2901.96 1074.94 2885.85 1106.68 2882.36 1139.74L2882.3 1146.04 2882.13 1147 2882.21 1155.8 2882.13 1164.67 2882.3 1165.64 2882.37 1171.93C2885.86 1205 2901.96 1236.73 2929.85 1259.3L3369.39 1614.91C3425.17 1660.04 3506.98 1651.41 3552.11 1595.63 3597.24 1539.84 3588.61 1458.04 3532.83 1412.9L3215.09 1155.84 3532.82 898.769C3588.61 853.637 3597.24 771.83 3552.11 716.047 3523.9 681.183 3481.37 664.736 3439.82 668.322ZM3328 278C3814.01 278 4208 671.99 4208 1158 4208 1644.01 3814.01 2038 3328 2038 2841.99 2038 2448 1644.01 2448 1158 2448 671.99 2841.99 278 3328 278Z" fill-rule="evenodd"/></g></svg>