<svg width="2907" height="991" xmlns="http://www.w3.org/2000/svg" xmlns:xlink="http://www.w3.org/1999/xlink" overflow="hidden"><defs><clipPath id="clip0"><rect x="101" y="1296" width="2907" height="991"/></clipPath></defs><g clip-path="url(#clip0)" transform="translate(-101 -1296)"><path d="M2526.62 1580C2512.26 1581.52 2498.49 1588.51 2488.69 1600.61L2488.69 1600.61C2469.1 1624.82 2472.85 1660.33 2497.07 1679.92L2634.99 1791.5 2497.07 1903.08C2472.85 1922.67 2469.1 1958.17 2488.69 1982.39L2488.69 1982.39C2508.28 2006.6 2543.8 2010.34 2568.01 1990.76L2758.81 1836.41C2764.86 1831.51 2769.64 1825.62 2773.09 1819.15L2776.48 1808.09 2777.54 1806.05 2777.72 1804.05 2779.42 1798.48 2778.81 1791.5 2779.42 1784.51 2777.72 1778.95 2777.54 1776.95 2776.48 1774.91 2773.09 1763.84C2769.64 1757.38 2764.86 1751.49 2758.81 1746.59L2568.01 1592.24C2555.9 1582.45 2540.97 1578.49 2526.62 1580ZM596.553 1296 2512.45 1296C2786.13 1296 3008 1517.84 3008 1791.5 3008 2065.16 2786.13 2287 2512.45 2287L596.553 2287C322.867 2287 101 2065.16 101 1791.5 101 1517.84 322.867 1296 596.553 1296Z" fill-rule="evenodd"/></g></svg>